<?xml version="1.0" encoding="UTF-8" standalone="no"?><!-- Generator: Gravit.io --><svg xmlns="http://www.w3.org/2000/svg" xmlns:xlink="http://www.w3.org/1999/xlink" style="isolation:isolate" viewBox="9 23 489 418" width="489pt" height="418pt"><defs><clipPath id="_clipPath_drqBCZUlb1vD6Q0LcMZtmG7FmX4ygsoi"><rect width="507.2" height="507.2"/></clipPath></defs><g clip-path="url(#_clipPath_drqBCZUlb1vD6Q0LcMZtmG7FmX4ygsoi)"><path d=" M 413.6 160.285 C 413.6 272.147 337.6 391 253.6 391 C 169.6 391 93.6 272.782 93.6 160.285 C 93.6 47.788 170.4 23 253.6 23 C 336.8 23 413.6 48.423 413.6 160.285 Z " fill="rgb(77,20,50)"/><path d=" M 253.6 23 C 336.8 23 413.6 48.423 413.6 160.285 C 413.6 272.147 337.6 391 253.6 391 C 169.6 391 93.6 272.782 93.6 160.285" fill="rgb(64,40,187)"/><path d=" M 253.6 23 C 336.8 23 413.6 48.423 413.6 160.285 C 413.6 272.147 337.6 391 253.6 391" fill="rgb(94,114,228)"/><path d=" M 216 103 C 216 116.6 204.8 138.2 190.4 138.2 C 176.8 138.2 164.8 117.4 164.8 103 C 164.8 89.4 176 77.4 190.4 77.4 C 204 77.4 216 88.6 216 103 Z " fill="rgb(2,39,40)"/><circle vector-effect="non-scaling-stroke" cx="190.4" cy="103" r="25.599999999999994" fill="rgb(0,255,242)"/><path d=" M 172 84.6 C 181.6 75 197.6 75 208 84.6 C 217.6 94.2 217.6 110.2 208 120.6" fill="rgb(22,216,216)"/><circle vector-effect="non-scaling-stroke" cx="190.4" cy="103" r="14.400000000000006" fill="rgb(0,255,242)"/><path d=" M 190.4 117.4 C 182.4 117.4 176 111 176 103 C 176 95 182.4 88.6 190.4 88.6" fill="rgb(22,216,216)"/><g><circle vector-effect="non-scaling-stroke" cx="179.19999999999993" cy="91.80000000000001" r="8.800000000000011" fill="rgb(235,255,253)"/><circle vector-effect="non-scaling-stroke" cx="204.8" cy="115.80000000000001" r="4" fill="rgb(235,255,253)"/></g><path d=" M 342.4 103 C 342.4 116.6 331.2 138.2 316.8 138.2 C 303.2 138.2 291.2 117.4 291.2 103 C 291.2 89.4 302.4 77.4 316.8 77.4 C 331.2 77.4 342.4 88.6 342.4 103 Z " fill="rgb(11,99,130)"/><circle vector-effect="non-scaling-stroke" cx="316.8" cy="103" r="25.600000000000023" fill="rgb(0,255,242)"/><path d=" M 299.2 84.6 C 308.8 75 324.8 75 335.2 84.6 C 344.8 94.2 344.8 110.2 335.2 120.6" fill="rgb(22,216,216)"/><circle vector-effect="non-scaling-stroke" cx="316.8" cy="103" r="14.399999999999977" fill="rgb(0,255,242)"/><path d=" M 316.8 117.4 C 308.8 117.4 302.4 111 302.4 103 C 302.4 95 308.8 88.6 316.8 88.6" fill="rgb(22,216,216)"/><g><circle vector-effect="non-scaling-stroke" cx="305.6" cy="91.80000000000001" r="8.800000000000011" fill="rgb(235,255,253)"/><circle vector-effect="non-scaling-stroke" cx="331.2" cy="115.80000000000001" r="4" fill="rgb(235,255,253)"/></g><path d=" M 191.2 164.6 L 157.6 124.6 L 157.6 124.6 L 96 124.6 C 95.2 132.6 94.4 140.6 94.4 140.6 L 151.2 140.6 L 189.6 180.6 L 189.6 180.6 L 189.6 180.6 L 245.6 180.6 L 245.6 164.6 L 191.2 164.6 Z " fill="rgb(0,255,242)"/><path d=" M 93.6 140.6 L 151.2 140.6 L 189.6 180.6 L 189.6 180.6 L 189.6 180.6 L 245.6 180.6 L 245.6 175.8 L 190.4 171 L 157.6 132.6 L 157.6 132.6" fill="rgb(22,216,216)"/><path d=" M 316 164.6 L 349.6 124.6 L 349.6 124.6 L 411.2 124.6 C 412 132.6 412.8 140.6 412.8 140.6 L 356 140.6 L 317.6 180.6 L 317.6 180.6 L 317.6 180.6 L 261.6 180.6 L 261.6 164.6 L 316 164.6 Z " fill="rgb(0,255,242)"/><path d=" M 413.6 140.6 L 356 140.6 L 317.6 180.6 L 317.6 180.6 L 317.6 180.6 L 261.6 180.6 L 261.6 175.8 L 316.8 171 L 349.6 132.6 L 349.6 132.6" fill="rgb(22,216,216)"/><circle vector-effect="non-scaling-stroke" cx="253.60000000000002" cy="170.2" r="16.000000000000014" fill="rgb(0,255,242)"/><path d=" M 269.6 170.2 C 269.6 179 262.4 186.2 253.6 186.2 C 244.8 186.2 237.6 179 237.6 170.2" fill="rgb(22,216,216)"/><path d=" M 94.4 196.6 L 93.6 195 C 93.6 195.8 92.8 195.8 92.8 196.6 C 92.8 290.2 124.8 385.4 172.8 439.8 L 172.8 223.8 L 143.2 196.6 L 94.4 196.6 L 94.4 196.6 Z " fill="rgb(11,127,158)"/><path d=" M 94.4 191 L 93.6 192.6 C 93.6 193.4 92.8 195 92.8 195.8 C 92.8 289.4 124.8 386.2 172.8 440.6 L 172.8 220.6" fill="rgb(0,35,63)"/><path d=" M 412 196.6 L 412.8 195 C 412.8 195.8 413.6 195.8 413.6 196.6 C 413.6 290.2 381.6 381.4 333.6 436.6 L 333.6 223.8 L 363.2 196.6 L 412 196.6 L 412 196.6 Z " fill="rgb(11,127,158)"/><path d=" M 412.8 191 L 412.8 192.6 C 412.8 193.4 413.6 195 413.6 195.8 C 413.6 289.4 381.6 386.2 333.6 440.6 L 333.6 220.6" fill="rgb(2,64,91)"/><circle vector-effect="non-scaling-stroke" cx="50.4" cy="327.79999999999995" r="40.8" fill="rgb(11,99,130)"/><g><path d=" M 50.4 287.8 C 72.8 287.8 91.2 306.2 91.2 328.6 C 91.2 351 72.8 369.4 50.4 369.4" fill="rgb(0,35,63)"/><circle vector-effect="non-scaling-stroke" cx="50.4" cy="270.20000000000005" r="9.600000000000001" fill="rgb(0,35,63)"/></g><path d=" M 53.6 260.6 L 53.6 220.6 L 77.6 220.6 L 77.6 188.6 L 93.6 188.6" fill="rgb(22,216,216)"/><path d=" M 100.761 272.469 C 93.278 273.061 85.789 255.674 84.047 233.665 C 82.305 211.657 86.966 193.307 94.449 192.715 C 101.932 192.123 109.421 209.511 111.163 231.519 C 112.905 253.528 108.244 271.877 100.761 272.469 Z " fill="rgb(11,127,158)"/><path d=" M 94.672 256.534 C 91.59 256.778 88.242 246.255 87.198 233.05 C 86.154 219.845 87.808 208.926 90.889 208.683 C 93.97 208.439 97.319 218.962 98.363 232.167 C 99.407 245.372 97.753 256.291 94.672 256.534 Z " fill="rgb(11,99,130)"/><g><circle vector-effect="non-scaling-stroke" cx="127.2" cy="234.19999999999993" r="3.200000000000003" fill="rgb(22,216,216)"/><circle vector-effect="non-scaling-stroke" cx="140" cy="230.19999999999993" r="3.1999999999999886" fill="rgb(22,216,216)"/><circle vector-effect="non-scaling-stroke" cx="152.8" cy="227" r="3.1999999999999886" fill="rgb(22,216,216)"/></g><path d=" M 69.6 336.6 C 69.6 339 68 340.6 65.6 340.6 L 33.6 340.6 C 31.2 340.6 29.6 339 29.6 336.6 L 29.6 336.6 C 29.6 334.2 31.2 332.6 33.6 332.6 L 65.6 332.6 C 68 332.6 69.6 334.2 69.6 336.6 L 69.6 336.6 Z " fill="rgb(0,255,242)"/><circle vector-effect="non-scaling-stroke" cx="456.8" cy="327.79999999999995" r="40.80000000000001" fill="rgb(11,99,130)"/><g><path d=" M 456.8 287.8 C 434.4 287.8 416 306.2 416 328.6 C 416 351 434.4 369.4 456.8 369.4" fill="rgb(0,35,63)"/><circle vector-effect="non-scaling-stroke" cx="456.8" cy="270.20000000000005" r="9.600000000000023" fill="rgb(0,35,63)"/></g><path d=" M 453.6 260.6 L 453.6 220.6 L 429.6 220.6 L 429.6 188.6 L 413.6 188.6" fill="rgb(22,216,216)"/><path d=" M 413.186 192.952 C 420.669 193.544 425.329 211.893 423.588 233.902 C 421.846 255.911 414.356 273.298 406.874 272.706 C 399.391 272.114 394.73 253.765 396.472 231.756 C 398.214 209.747 405.703 192.36 413.186 192.952 Z " fill="rgb(11,127,158)"/><path d=" M 416.127 209.292 C 419.208 209.535 420.862 220.454 419.818 233.659 C 418.775 246.864 415.426 257.387 412.345 257.143 C 409.263 256.9 407.609 245.981 408.653 232.776 C 409.697 219.571 413.046 209.048 416.127 209.292 Z " fill="rgb(11,99,130)"/><g><circle vector-effect="non-scaling-stroke" cx="380" cy="234.19999999999993" r="3.1999999999999886" fill="rgb(22,216,216)"/><circle vector-effect="non-scaling-stroke" cx="367.19999999999993" cy="230.19999999999993" r="3.1999999999999886" fill="rgb(22,216,216)"/><circle vector-effect="non-scaling-stroke" cx="354.3999999999999" cy="227" r="3.1999999999999886" fill="rgb(22,216,216)"/></g><path d=" M 477.6 336.6 C 477.6 334.2 476 332.6 473.6 332.6 L 441.6 332.6 C 439.2 332.6 437.6 334.2 437.6 336.6 L 437.6 336.6 C 437.6 339 439.2 340.6 441.6 340.6 L 473.6 340.6 C 476 340.6 477.6 339 477.6 336.6 L 477.6 336.6 Z " fill="rgb(0,255,242)"/></g></svg>